<svg xmlns="http://www.w3.org/2000/svg" width="688.843" height="760.238" viewBox="0 0 688.843 760.238">
  <g id="Group_2" data-name="Group 2" transform="translate(-828.442 -437.543)">
    <g id="Group_1" data-name="Group 1" transform="translate(547.671 -47.508)">
      <path id="Path_1" data-name="Path 1" d="M2233.2,2940.488l-62.87,476.765,442.71,82.517,35.365-690.262Z" transform="translate(-1889 -2261)" stroke="#fff" stroke-width="1"/>
      <path id="Path_2" data-name="Path 2" d="M2652.333,2813.509l-34.054,687.572,239.692-49.772-87.756-586.788s-50.808-.863-62.116-5.013S2652.333,2813.509,2652.333,2813.509Z" transform="translate(-1894 -2262)" stroke="#fff" stroke-width="10"/>
    </g>
    <path id="Path_5" data-name="Path 5" d="M2.747-36.043c0,8.1,5.447,13.735,15.819,15.63l9.473,1.752c4.4.805,5.92,1.847,5.92,3.742,0,2.179-2.321,3.552-6.062,3.552-4.357,0-6.915-1.989-7.578-5.257H1.563C2.463-5.92,11.415,1.326,27.9,1.326c15.156,0,25.292-7.1,25.292-18.472,0-7.91-5.068-12.267-16.388-14.351l-9.473-1.752c-4.736-.9-6.015-2.037-6.015-3.884,0-2.368,2.368-3.789,5.873-3.789,4.168,0,6.583,2.368,6.82,5.542H51.626c-.237-11.178-9.188-18.235-24.439-18.235C11.983-53.615,2.747-46.937,2.747-36.043ZM58.352,0H77.771V-30.36c0-4.547,2.368-7.389,6.3-7.389,4.168,0,6.3,2.51,6.3,7.483V0h18.424V-30.36c0-4.594,2.321-7.389,6.252-7.389,4.215,0,6.347,2.463,6.347,7.436V0h19.419V-35.333c0-10.657-7.01-18-17.193-18-7.957,0-14.3,4.594-16.056,11.509h-.379C105.9-49.163,100.6-53.331,92.643-53.331a15.276,15.276,0,0,0-14.967,11.6H77.3V-52.289H58.352ZM170.839-12.22c-3.41,0-5.731-1.658-5.731-4.5,0-2.558,2.084-4.31,5.778-4.594l8.241-.568v3.41C179.128-14.635,175.149-12.22,170.839-12.22ZM163.593.758c6.063,0,12.409-2.652,15.156-7.768h.379V0h18.945V-35.759c0-10.609-9.709-17.856-24.2-17.856-15.251,0-24.724,7.057-25.2,18.235h17.335c.284-2.652,2.842-4.831,6.82-4.831,3.647,0,6.3,1.895,6.3,5.4v2.558l-11.462.71c-13.972.853-21.692,6.3-21.692,16.34C145.974-5.778,154.073.758,163.593.758ZM205.6,0h19.419V-68.345H205.6Zm27.187,0h19.419V-68.345H232.791ZM2.747,78.957c0,8.1,5.447,13.735,15.819,15.63l9.473,1.752c4.4.805,5.92,1.847,5.92,3.742,0,2.179-2.321,3.552-6.062,3.552-4.357,0-6.915-1.989-7.578-5.257H1.563c.9,10.7,9.852,17.951,26.334,17.951,15.156,0,25.292-7.1,25.292-18.472,0-7.91-5.068-12.267-16.388-14.351l-9.473-1.752c-4.736-.9-6.015-2.037-6.015-3.884,0-2.368,2.368-3.789,5.873-3.789,4.168,0,6.583,2.368,6.82,5.542H51.626c-.237-11.178-9.188-18.235-24.439-18.235C11.983,61.385,2.747,68.063,2.747,78.957ZM63.041,51.249V62.711H56.125V76.778h6.915v23.634c0,10.325,5.826,14.588,20.6,14.588a38.783,38.783,0,0,0,8-.71V100.838a17.274,17.274,0,0,1-3.315.237c-3.979,0-5.873-1.705-5.873-4.973V76.778h9.188V62.711H82.459V51.249Zm35,63.751h19.419V88.95c0-7.294,3.742-11.036,11.036-11.036A14.579,14.579,0,0,1,134.133,79V62.711a13.046,13.046,0,0,0-4.547-.758c-6.2,0-10.23,3.6-12.22,11.036h-.379V62.711H98.042Zm65.551-40.259a7.843,7.843,0,0,1,8.146,7.72H155.446A8.088,8.088,0,0,1,163.593,74.741Zm8.715,23.3c-1.137,3.126-4.31,4.973-8.241,4.973a8.532,8.532,0,0,1-8.9-8.81V92.976h34.67V87.719c0-16.009-10.467-26.334-26.666-26.334-16.435,0-26.713,10.657-26.713,27.755,0,17,10.183,27.187,27.329,27.187,14.351,0,24.2-7.01,25.813-18.282Zm49.258-23.3a7.843,7.843,0,0,1,8.146,7.72H213.419A8.088,8.088,0,0,1,221.565,74.741Zm8.715,23.3c-1.137,3.126-4.31,4.973-8.241,4.973a8.532,8.532,0,0,1-8.9-8.81V92.976H247.8V87.719c0-16.009-10.467-26.334-26.666-26.334-16.435,0-26.713,10.657-26.713,27.755,0,17,10.183,27.187,27.329,27.187,14.351,0,24.2-7.01,25.813-18.282Zm28.134-46.795V62.711H251.5V76.778h6.915v23.634c0,10.325,5.826,14.588,20.6,14.588a38.783,38.783,0,0,0,8-.71V100.838a17.274,17.274,0,0,1-3.315.237c-3.979,0-5.873-1.705-5.873-4.973V76.778h9.188V62.711h-9.188V51.249ZM3.647,230H23.066V199.64c0-4.547,2.368-7.389,6.3-7.389,4.168,0,6.3,2.51,6.3,7.483V230H54.089V199.64c0-4.594,2.321-7.389,6.252-7.389,4.215,0,6.347,2.463,6.347,7.436V230H86.106V194.667c0-10.657-7.01-18-17.193-18-7.957,0-14.3,4.594-16.056,11.509h-.379c-1.279-7.341-6.583-11.509-14.541-11.509a15.276,15.276,0,0,0-14.967,11.6h-.379V177.711H3.647Zm112.488-12.22c-3.41,0-5.731-1.658-5.731-4.5,0-2.558,2.084-4.31,5.778-4.594l8.241-.568v3.41C124.423,215.365,120.445,217.78,116.135,217.78Zm-7.247,12.978c6.063,0,12.409-2.652,15.156-7.768h.379V230h18.945V194.241c0-10.609-9.709-17.856-24.2-17.856-15.251,0-24.724,7.057-25.2,18.235H111.3c.284-2.652,2.842-4.831,6.82-4.831,3.647,0,6.3,1.895,6.3,5.4v2.558l-11.462.71c-13.972.853-21.692,6.3-21.692,16.34C91.269,224.222,99.368,230.758,108.888,230.758ZM150.663,230h19.419V203.95c0-7.294,3.742-11.036,11.036-11.036A14.579,14.579,0,0,1,186.753,194V177.711a13.046,13.046,0,0,0-4.547-.758c-6.2,0-10.23,3.6-12.22,11.036h-.379V177.711H150.663Zm60.72-33.391H211V161.655H191.584V230H211V215.033l2.558-3.41L224.36,230h22.308l-18.614-29.981,17.382-22.308H224.076Zm60.672-6.868a7.843,7.843,0,0,1,8.146,7.72H263.908A8.088,8.088,0,0,1,272.055,189.741Zm8.715,23.3c-1.137,3.126-4.31,4.973-8.241,4.973a8.532,8.532,0,0,1-8.9-8.81v-1.231h34.67v-5.257c0-16.009-10.467-26.334-26.666-26.334-16.435,0-26.713,10.657-26.713,27.755,0,17,10.183,27.187,27.329,27.187,14.351,0,24.2-7.01,25.813-18.282ZM308.9,166.249v11.462h-6.915v14.067H308.9v23.634c0,10.325,5.826,14.588,20.6,14.588a38.783,38.783,0,0,0,8-.71V215.838a17.274,17.274,0,0,1-3.315.237c-3.979,0-5.873-1.705-5.873-4.973V191.778h9.188V177.711h-9.188V166.249Z" transform="matrix(0.996, -0.087, 0.087, 0.996, 898, 781)" fill="#fff"/>
    <path id="Path_3" data-name="Path 3" d="M2301.607,2891.879s29.254-149.139,99.461-175.661,126.17,101.334,126.17,101.334Z" transform="translate(-1344 -2265)" fill="none" stroke="#000" stroke-width="20"/>
    <path id="Path_4" data-name="Path 4" d="M2301.607,2872.748s26.133-133.224,88.848-156.917,112.706,90.521,112.706,90.521Z" transform="translate(-1244 -2245.869)" fill="none" stroke="#000" stroke-width="20"/>
  </g>
</svg>
